<svg xmlns="http://www.w3.org/2000/svg" viewBox="0 0 750 154"><defs><style>.cls-1{font-size:18px;fill:#fff;font-family:RoadRage, Road Rage;}.cls-2{letter-spacing:-0.03em;}.cls-3{letter-spacing:0.02em;}.cls-4{letter-spacing:-0.04em;}.cls-5{letter-spacing:-0.04em;}.cls-6{letter-spacing:0.01em;}.cls-7{letter-spacing:0.01em;}.cls-8{letter-spacing:0.03em;}.cls-9{letter-spacing:0.02em;}.cls-10{letter-spacing:-0.02em;}.cls-11{letter-spacing:0.02em;}.cls-12{fill:none;}</style></defs><title>Asset 18</title><g id="Layer_2" data-name="Layer 2"><g id="Layer_1-2" data-name="Layer 1"><g id="Disclaimer"><rect width="750" height="154"/><text class="cls-1" transform="translate(88.06 36.58)"><tspan class="cls-2">T</tspan><tspan class="cls-3" x="8.76" y="0">h</tspan><tspan x="22.29" y="0">is interactive m</tspan><tspan class="cls-4" x="173.32" y="0">e</tspan><tspan x="184.53" y="0">dia project was creat</tspan><tspan class="cls-4" x="400.48" y="0">e</tspan><tspan x="411.69" y="0">d by students </tspan><tspan x="146.56" y="21.6">for </tspan><tspan class="cls-5" x="186.26" y="21.6">e</tspan><tspan class="cls-6" x="197.47" y="21.6">d</tspan><tspan x="210.58" y="21.6">ucati</tspan><tspan class="cls-7" x="258.2" y="21.6">o</tspan><tspan x="269.46" y="21.6">nal </tspan><tspan class="cls-8" x="309.21" y="21.6">p</tspan><tspan x="321.05" y="21.6">ur</tspan><tspan class="cls-3" x="343.17" y="21.6">p</tspan><tspan x="354.87" y="21.6">oses</tspan><tspan x="55.42" y="43.2">at </tspan><tspan class="cls-2" x="82.48" y="43.2">T</tspan><tspan class="cls-9" x="91.25" y="43.2">h</tspan><tspan x="104.64" y="43.2">e Art Instit</tspan><tspan class="cls-3" x="213.79" y="43.2">u</tspan><tspan x="224.79" y="43.2">te of Tenne</tspan><tspan class="cls-10" x="336.78" y="43.2">s</tspan><tspan x="347.23" y="43.2">see, Nash</tspan><tspan class="cls-11" x="442.08" y="43.2">v</tspan><tspan x="452.37" y="43.2">ille</tspan><tspan x="11.29" y="64.8">and is in no way intend</tspan><tspan class="cls-5" x="232.98" y="64.8">e</tspan><tspan x="244.18" y="64.8">d for c</tspan><tspan class="cls-9" x="313.86" y="64.8">o</tspan><tspan x="325.27" y="64.8">mmercial gain or as a </tspan><tspan x="132.28" y="86.4">s</tspan><tspan class="cls-3" x="143.15" y="86.4">o</tspan><tspan x="154.7" y="86.4">urce of </tspan><tspan class="cls-8" x="233.9" y="86.4">p</tspan><tspan x="245.73" y="86.4">u</tspan><tspan class="cls-11" x="256.31" y="86.4">b</tspan><tspan x="268.14" y="86.4">lic informati</tspan><tspan class="cls-7" x="391.11" y="86.4">o</tspan><tspan x="402.38" y="86.4">n </tspan></text><rect id="_Slice_" data-name="&lt;Slice&gt;" class="cls-12" width="750" height="153"/></g></g></g></svg>